PathFileType	4	(X/Y/Z)	 D:\Google Drive\Share to the world\OpenSim\ScaleTool\TRC\Walk_Mkrs2.trc
DataRate	CameraRate	NumFrames	NumMarkers	Units	OrigDataRate	OrigDataStartFrame	OrigNumFrames
100	100	9	34	m	100	336	536
Frame#	time	C7			T10			CLAV			STRN			LSHO			LELB			LWRA			LWRB			LFIN			RSHO			RELB			RWRA			RWRB			RFIN			LASI			RASI			LPSI			RPSI			LTHI			LKNE			LTIB			LANK			LHEE			LTOE			RTHI			RKNE			RTIB			RANK			RHEE			RTOE			RPINKY			LPINKY			INRKNE			INLKNE			
		X1	Y1	Z1	X2	Y2	Z2	X3	Y3	Z3	X4	Y4	Z4	X5	Y5	Z5	X6	Y6	Z6	X7	Y7	Z7	X8	Y8	Z8	X9	Y9	Z9	X10	Y10	Z10	X11	Y11	Z11	X12	Y12	Z12	X13	Y13	Z13	X14	Y14	Z14	X15	Y15	Z15	X16	Y16	Z16	X17	Y17	Z17	X18	Y18	Z18	X19	Y19	Z19	X20	Y20	Z20	X21	Y21	Z21	X22	Y22	Z22	X23	Y23	Z23	X24	Y24	Z24	X25	Y25	Z25	X26	Y26	Z26	X27	Y27	Z27	X28	Y28	Z28	X29	Y29	Z29	X30	Y30	Z30	X31	Y31	Z31	X32	Y32	Z32	X33	Y33	Z33	X34	Y34	Z34	

336	3.3500	-0.904890	1.496250	0.185350	-0.952970	1.251290	0.184180	-0.767670	1.389350	0.214720	-0.742830	1.236120	0.211330	-0.807180	1.455990	0.023000	-0.662650	1.183260	-0.052800	-0.461850	1.034900	0.015600	-0.495140	0.999290	-0.030240	-0.419340	0.969580	-0.026360	-0.871500	1.464660	0.371200	-0.988840	1.164800	0.456280	-0.977660	0.912680	0.435910	-1.024470	0.926930	0.473720	-1.017390	0.853260	0.476970	-0.772560	0.974230	0.077220	-0.788520	0.976720	0.339960	-0.932710	1.079670	0.149500	-0.938010	1.076920	0.235270	-0.832620	0.668450	0.051170	-0.856930	0.479460	0.084110	-0.914070	0.282320	0.083640	-0.947120	0.081590	0.137810	-1.000280	0.102580	0.169240	-0.804860	0.045190	0.205840	-0.726080	0.698360	0.376180	-0.647710	0.527810	0.353460	-0.679320	0.352270	0.360540	-0.701980	0.122190	0.315310	-0.751220	0.146550	0.271800	-0.552700	0.085460	0.281100	-0.600390	0.066500	0.335570	-0.845630	0.034930	0.114640	-0.637610	0.527410	0.246780	-0.876380	0.480420	0.189470	
337	3.3600	-0.895230	1.495080	0.185630	-0.943430	1.250150	0.184850	-0.758000	1.388180	0.214680	-0.733190	1.234950	0.211020	-0.797970	1.455170	0.023250	-0.648500	1.185840	-0.052430	-0.442920	1.045150	0.017580	-0.475030	1.007640	-0.027430	-0.398320	0.980570	-0.023370	-0.861470	1.463570	0.371370	-0.982060	1.165000	0.456010	-0.973060	0.912830	0.435490	-1.019940	0.927430	0.473120	-1.013460	0.853750	0.476290	-0.763720	0.972980	0.077020	-0.777610	0.975560	0.339900	-0.923510	1.078440	0.150430	-0.928030	1.075730	0.236250	-0.826130	0.667400	0.051590	-0.852400	0.478510	0.084300	-0.911630	0.282000	0.083850	-0.946840	0.081630	0.138110	-0.999740	0.103040	0.169350	-0.804740	0.045150	0.205820	-0.717070	0.696140	0.375960	-0.638050	0.525740	0.352160	-0.659330	0.348910	0.360650	-0.666630	0.117330	0.316310	-0.717980	0.138460	0.273260	-0.515810	0.089780	0.280140	-0.561480	0.068040	0.335170	-0.845630	0.034920	0.114530	-0.628820	0.525120	0.245930	-0.871430	0.479640	0.189730	
338	3.3700	-0.885520	1.493760	0.185980	-0.933830	1.248850	0.185600	-0.748270	1.386880	0.214660	-0.723470	1.233650	0.210730	-0.788740	1.454210	0.023550	-0.634720	1.188180	-0.052060	-0.424750	1.055180	0.019620	-0.455600	1.015870	-0.024610	-0.378060	0.991430	-0.020300	-0.851300	1.462340	0.371590	-0.974860	1.165000	0.455800	-0.967860	0.912780	0.435080	-1.014790	0.927710	0.472540	-1.008940	0.854000	0.475550	-0.754770	0.971640	0.076840	-0.766550	0.974210	0.339880	-0.914210	1.077070	0.151360	-0.917940	1.074360	0.237240	-0.819440	0.666270	0.052040	-0.847650	0.477500	0.084500	-0.909070	0.281650	0.084090	-0.946500	0.081700	0.138460	-0.999130	0.103520	0.169510	-0.804580	0.045100	0.205830	-0.708600	0.693230	0.375790	-0.628900	0.523220	0.350900	-0.639760	0.345790	0.360700	-0.631690	0.113720	0.317100	-0.684950	0.131510	0.274540	-0.479850	0.095300	0.278940	-0.523350	0.070900	0.334520	-0.845620	0.034930	0.114460	-0.620640	0.522270	0.245100	-0.866310	0.478800	0.190000	
339	3.3800	-0.875760	1.492290	0.186390	-0.924170	1.247400	0.186400	-0.738470	1.385430	0.214680	-0.713670	1.232200	0.210460	-0.779500	1.453090	0.023890	-0.621270	1.190270	-0.051670	-0.407330	1.064920	0.021730	-0.436830	1.023940	-0.021820	-0.358550	1.002100	-0.017170	-0.840980	1.460960	0.371880	-0.967250	1.164760	0.455660	-0.962050	0.912510	0.434690	-1.009020	0.927720	0.472010	-1.003830	0.853960	0.474790	-0.745700	0.970200	0.076670	-0.755340	0.972680	0.339880	-0.904800	1.075530	0.152300	-0.907750	1.072790	0.238240	-0.812530	0.665080	0.052490	-0.842710	0.476440	0.084700	-0.906390	0.281280	0.084350	-0.946100	0.081790	0.138850	-0.998450	0.104040	0.169700	-0.804380	0.045030	0.205890	-0.700550	0.689690	0.375690	-0.620140	0.520340	0.349710	-0.620640	0.342950	0.360670	-0.597520	0.111380	0.317610	-0.652400	0.125780	0.275530	-0.445120	0.101900	0.277570	-0.486370	0.074980	0.333630	-0.845600	0.034950	0.114410	-0.613000	0.518950	0.244300	-0.861000	0.477910	0.190280	
340	3.3900	-0.865960	1.490660	0.186880	-0.914450	1.245780	0.187260	-0.728600	1.383820	0.214720	-0.703810	1.230600	0.210210	-0.770240	1.451800	0.024280	-0.608120	1.192110	-0.051250	-0.390630	1.074310	0.023920	-0.418680	1.031810	-0.019100	-0.339740	1.012560	-0.013990	-0.830540	1.459420	0.372220	-0.959210	1.164260	0.455600	-0.955620	0.911990	0.434330	-1.002610	0.927430	0.471540	-0.998100	0.853580	0.474010	-0.736490	0.968690	0.076500	-0.743960	0.970970	0.339880	-0.895280	1.073810	0.153260	-0.897440	1.071020	0.239240	-0.805410	0.663810	0.052930	-0.837540	0.475310	0.084890	-0.903580	0.280890	0.084630	-0.945640	0.081920	0.139250	-0.997710	0.104600	0.169900	-0.804140	0.044950	0.205980	-0.692730	0.685680	0.375710	-0.611620	0.517190	0.348680	-0.602010	0.340400	0.360560	-0.564490	0.110240	0.317770	-0.620660	0.121290	0.276130	-0.411900	0.109350	0.276080	-0.450930	0.080060	0.332530	-0.845570	0.034970	0.114380	-0.605790	0.515240	0.243560	-0.855490	0.476980	0.190550	
341	3.4000	-0.856120	1.488890	0.187440	-0.904650	1.244010	0.188180	-0.718680	1.382070	0.214800	-0.693880	1.228840	0.209980	-0.760970	1.450340	0.024710	-0.595250	1.193700	-0.050790	-0.374620	1.083300	0.026170	-0.401120	1.039450	-0.016450	-0.321610	1.022740	-0.010780	-0.820000	1.457710	0.372630	-0.950740	1.163480	0.455630	-0.948560	0.911200	0.434000	-0.995550	0.926820	0.471160	-0.991720	0.852870	0.473240	-0.727140	0.967090	0.076320	-0.732420	0.969120	0.339890	-0.885660	1.071910	0.154240	-0.887030	1.069040	0.240250	-0.798090	0.662470	0.053330	-0.832140	0.474110	0.085070	-0.900640	0.280470	0.084930	-0.945140	0.082080	0.139640	-0.996900	0.105210	0.170080	-0.803880	0.044850	0.206090	-0.684930	0.681400	0.375860	-0.603220	0.513860	0.347840	-0.583970	0.338150	0.360360	-0.532960	0.110160	0.317560	-0.590080	0.117980	0.276290	-0.380470	0.117340	0.274540	-0.417410	0.085830	0.331250	-0.845550	0.035020	0.114350	-0.598870	0.511260	0.242900	-0.849770	0.476000	0.190810	
342	3.4100	-0.846240	1.486970	0.188080	-0.894790	1.242070	0.189150	-0.708710	1.380160	0.214910	-0.683870	1.226950	0.209760	-0.751690	1.448710	0.025170	-0.582620	1.195040	-0.050280	-0.359270	1.091850	0.028490	-0.384130	1.046810	-0.013890	-0.304160	1.032620	-0.007560	-0.809360	1.455840	0.373090	-0.941840	1.162400	0.455770	-0.940880	0.910110	0.433710	-0.987820	0.925870	0.470880	-0.984640	0.851810	0.472520	-0.717650	0.965420	0.076130	-0.720720	0.967150	0.339890	-0.875920	1.069830	0.155260	-0.876500	1.066870	0.241280	-0.790570	0.661040	0.053700	-0.826490	0.472830	0.085240	-0.897540	0.280030	0.085250	-0.944600	0.082290	0.139980	-0.996040	0.105880	0.170230	-0.803600	0.044750	0.206230	-0.676950	0.677060	0.376140	-0.594800	0.510460	0.347240	-0.566610	0.336170	0.360110	-0.503300	0.110890	0.316980	-0.561030	0.115710	0.275990	-0.351090	0.125470	0.273000	-0.386150	0.091910	0.329850	-0.845550	0.035070	0.114290	-0.592030	0.507140	0.242340	-0.843810	0.474960	0.191050	
343	3.4200	-0.836330	1.484920	0.188790	-0.884840	1.239990	0.190170	-0.698670	1.378110	0.215050	-0.673800	1.224920	0.209570	-0.742410	1.446900	0.025670	-0.570220	1.196140	-0.049690	-0.344550	1.099890	0.030860	-0.367710	1.053850	-0.011430	-0.287360	1.042140	-0.004350	-0.798640	1.453800	0.373620	-0.932500	1.161000	0.456020	-0.932560	0.908720	0.433480	-0.979430	0.924570	0.470720	-0.976820	0.850380	0.471870	-0.708020	0.963650	0.075950	-0.708870	0.965110	0.339890	-0.866070	1.067580	0.156320	-0.865850	1.064520	0.242330	-0.782860	0.659520	0.054040	-0.820560	0.471470	0.085430	-0.894270	0.279560	0.085590	-0.944030	0.082550	0.140270	-0.995130	0.106620	0.170330	-0.803330	0.044650	0.206360	-0.668540	0.672880	0.376540	-0.586240	0.507040	0.346870	-0.550080	0.334360	0.359800	-0.475830	0.112140	0.316080	-0.533880	0.114270	0.275270	-0.324000	0.133290	0.271490	-0.357450	0.097900	0.328380	-0.845570	0.035140	0.114190	-0.585050	0.502990	0.241900	-0.837600	0.473850	0.191300	
344	3.4300	-0.826370	1.482760	0.189560	-0.874800	1.237760	0.191240	-0.688580	1.375940	0.215220	-0.663640	1.222780	0.209410	-0.733130	1.444950	0.026200	-0.558030	1.197000	-0.049050	-0.330420	1.107400	0.033270	-0.351860	1.060540	-0.009040	-0.271210	1.051240	-0.001180	-0.787870	1.451590	0.374210	-0.922720	1.159270	0.456390	-0.923600	0.907010	0.433310	-0.970360	0.922900	0.470670	-0.968250	0.848590	0.471340	-0.698250	0.961780	0.075780	-0.696870	0.963060	0.339910	-0.856110	1.065180	0.157420	-0.855100	1.062030	0.243400	-0.774950	0.657900	0.054360	-0.814320	0.470010	0.085630	-0.890790	0.279070	0.085940	-0.943440	0.082860	0.140480	-0.994170	0.107440	0.170360	-0.803080	0.044560	0.206480	-0.659500	0.669050	0.377010	-0.577430	0.503670	0.346680	-0.534500	0.332640	0.359440	-0.450850	0.113550	0.314950	-0.508980	0.113380	0.274200	-0.299400	0.140330	0.270070	-0.331550	0.103340	0.326910	-0.845600	0.035210	0.114070	-0.577700	0.498970	0.241550	-0.831110	0.472650	0.191560	
